<svg width="26" height="26" viewBox="0 0 26 26" fill="none" xmlns="http://www.w3.org/2000/svg">
<g clip-path="url(#clip0_57_346)">
<path d="M18.4167 0H7.58342C4.59666 0 2.16675 2.42992 2.16675 5.41667V20.5833C2.16675 23.5701 4.59666 26 7.58342 26H18.4167C21.4035 26 23.8334 23.5701 23.8334 20.5833V5.41667C23.8334 2.42992 21.4035 0 18.4167 0ZM10.8334 20.5833C10.8334 21.1813 10.3481 21.6667 9.75008 21.6667H7.58342C6.98541 21.6667 6.50008 21.1813 6.50008 20.5833V18.4167C6.50008 17.8187 6.98541 17.3333 7.58342 17.3333H9.75008C10.3481 17.3333 10.8334 17.8187 10.8334 18.4167V20.5833ZM10.8334 14.0833C10.8334 14.6813 10.3481 15.1667 9.75008 15.1667H7.58342C6.98541 15.1667 6.50008 14.6813 6.50008 14.0833V11.9167C6.50008 11.3187 6.98541 10.8333 7.58342 10.8333H9.75008C10.3481 10.8333 10.8334 11.3187 10.8334 11.9167V14.0833ZM10.8334 7.58333C10.8334 8.18133 10.3481 8.66667 9.75008 8.66667H7.58342C6.98541 8.66667 6.50008 8.18133 6.50008 7.58333V5.41667C6.50008 4.81867 6.98541 4.33333 7.58342 4.33333H9.75008C10.3481 4.33333 10.8334 4.81867 10.8334 5.41667V7.58333ZM18.4167 20.5833H14.0834C12.6664 20.5768 12.6675 18.4232 14.0834 18.4167H18.4167C19.8337 18.4232 19.8327 20.5768 18.4167 20.5833ZM18.4167 14.0833H14.0834C12.6664 14.0768 12.6675 11.9232 14.0834 11.9167H18.4167C19.8337 11.9232 19.8327 14.0768 18.4167 14.0833ZM18.4167 7.58333H14.0834C12.6664 7.57683 12.6675 5.42317 14.0834 5.41667H18.4167C19.8337 5.42317 19.8327 7.57683 18.4167 7.58333Z" fill="#E51937"/>
</g>
<defs>
<clipPath id="clip0_57_346">
<rect width="26" height="26" fill="white"/>
</clipPath>
</defs>
</svg>
